<?xml version="1.0" encoding="UTF-8" standalone="no"?>
<!-- Created with Inkscape (http://www.inkscape.org/) -->

<svg
   width="210mm"
   height="297mm"
   viewBox="0 0 210 297"
   version="1.1"
   id="svg1"
   inkscape:version="1.3 (0e150ed6c4, 2023-07-21)"
   sodipodi:docname="logo f sidu.svg"
   xmlns:inkscape="http://www.inkscape.org/namespaces/inkscape"
   xmlns:sodipodi="http://sodipodi.sourceforge.net/DTD/sodipodi-0.dtd"
   xmlns="http://www.w3.org/2000/svg"
   xmlns:svg="http://www.w3.org/2000/svg">
  <sodipodi:namedview
     id="namedview1"
     pagecolor="#ffffff"
     bordercolor="#999999"
     borderopacity="1"
     inkscape:showpageshadow="2"
     inkscape:pageopacity="0"
     inkscape:pagecheckerboard="0"
     inkscape:deskcolor="#d1d1d1"
     inkscape:document-units="mm"
     inkscape:export-bgcolor="#000000ff"
     inkscape:zoom="1.0547699"
     inkscape:cx="280.62992"
     inkscape:cy="555.5714"
     inkscape:window-width="1440"
     inkscape:window-height="830"
     inkscape:window-x="-6"
     inkscape:window-y="-6"
     inkscape:window-maximized="1"
     inkscape:current-layer="layer1" />
  <defs
     id="defs1" />
  <g
     inkscape:label="Layer 1"
     inkscape:groupmode="layer"
     id="layer1">
    <path
       id="path1"
       style="opacity:1;fill:#f7eb00;fill-opacity:1;stroke:#000000;stroke-width:0;stroke-linejoin:bevel;paint-order:stroke fill markers"
       d="M 84.171606 89.198173 A 43.759144 43.44743 0 0 0 40.41252 132.64565 A 43.759144 43.44743 0 0 0 84.171606 176.09313 A 43.759144 43.44743 0 0 0 127.93069 132.64565 A 43.759144 43.44743 0 0 0 84.171606 89.198173 z M 84.171606 97.158927 A 32.00032 35.48661 0 0 1 116.17172 132.64565 A 32.00032 35.48661 0 0 1 84.171606 168.13186 A 32.00032 35.48661 0 0 1 52.171493 132.64565 A 32.00032 35.48661 0 0 1 84.171606 97.158927 z " />
    <path
       style="opacity:1;fill:#000000;fill-opacity:1;stroke:#000000;stroke-width:0;stroke-linejoin:bevel;paint-order:stroke fill markers"
       id="path3"
       d="m 46.745027,155.14636 c 0.788704,-2.46323 2.231422,-4.62045 3.68028,-6.73472 1.040712,-1.56986 2.230191,-3.02968 3.418284,-4.48801 0.72797,-0.9415 1.601674,-1.75648 2.336964,-2.69102 0.612701,-0.84427 0.679707,-1.63292 0.635408,-2.6512 -0.09929,-1.17091 -0.370361,-2.35553 -0.99183,-3.36792 -0.128826,-0.20986 -0.284367,-0.40211 -0.426548,-0.60316 -1.732646,-2.11999 -4.373386,-3.25659 -6.686606,-4.5773 -1.108633,-0.57125 -2.296403,-0.9453 -3.460247,-1.378 -1.006446,-0.39914 -2.048261,-0.69243 -3.075906,-1.02923 -0.536633,-0.17371 -1.05007,-0.42403 -1.550228,-0.68347 -0.145235,-0.0753 -0.567775,-0.32547 -0.425487,-0.2447 3.005577,1.70596 3.804388,2.29395 2.525199,1.38274 -0.691364,-0.512 -1.120894,-1.19104 -1.380802,-1.99831 -0.22052,-0.8048 -0.229394,-1.64221 -0.243581,-2.47027 -0.01569,-1.18972 0.420476,-2.27283 0.90849,-3.33356 0.312547,-0.59647 0.645189,-1.23945 1.175215,-1.67974 0.202933,-0.16857 0.52872,-0.30997 0.753801,-0.4219 1.742464,-0.66499 3.517175,-1.24383 5.311423,-1.75225 1.28683,-0.31735 2.583267,-0.60577 3.859847,-0.96329 1.042636,-0.2204 2.059927,-0.46974 3.060909,-0.84102 0.941597,-0.37195 1.963637,-0.62104 2.819583,-1.17795 0.727532,-0.79901 1.502497,-1.54474 2.345706,-2.22325 0.619789,-0.54283 1.246259,-1.06953 1.977974,-1.45434 0.394224,-0.16288 0.756119,-0.3808 1.047229,-0.69304 0.03706,-0.0577 0.07412,-0.11537 0.111186,-0.17305 0,0 -3.408765,-1.99448 -3.408765,-1.99448 v 0 c -0.02408,0.0353 -0.04815,0.0706 -0.07222,0.10595 -0.281329,0.26445 -0.614079,0.44511 -0.953738,0.62501 -0.710819,0.43816 -1.322081,0.9937 -1.931186,1.56215 -0.819772,0.69287 -1.611672,1.41593 -2.407415,2.13537 -0.808839,0.54216 -1.770827,0.81683 -2.673421,1.157 -1.015579,0.31711 -2.0545,0.52042 -3.078287,0.80622 -1.261941,0.37031 -2.544768,0.66318 -3.814736,1.00405 -1.794862,0.60692 -3.584014,1.22998 -5.402199,1.76553 -0.167301,0.0836 -0.342432,0.15301 -0.501909,0.25069 -0.752779,0.46107 -1.124569,1.35452 -1.517565,2.09828 -0.505466,1.09803 -1.021858,2.21327 -1.064102,3.44342 0.0082,0.8578 0.0154,1.72718 0.202452,2.5679 0.242212,0.89884 0.563176,1.61069 1.289155,2.22853 1.795354,1.41316 3.904531,2.53007 6.058845,3.31505 1.033145,0.33116 2.065073,0.66314 3.079792,1.04831 1.145217,0.40151 2.291289,0.80823 3.367561,1.37698 -5.084664,-2.98478 -2.255805,-1.41969 -1.245306,-0.67721 0.554749,0.40762 1.079481,0.87489 1.527643,1.39713 0.147802,0.18552 0.307925,0.36187 0.443399,0.55657 0.65431,0.94039 0.941764,2.0657 1.036934,3.19394 0.04629,0.85952 -0.04853,1.66601 -0.547952,2.39169 -0.708842,0.95229 -1.51751,1.81633 -2.288765,2.71731 -1.115033,1.51597 -2.212768,3.04537 -3.225651,4.63232 -1.402189,2.16506 -2.822687,4.32117 -3.986462,6.62795 z" />
    <path
       style="opacity:1;fill:#000000;fill-opacity:1;stroke:#000000;stroke-width:0;stroke-linejoin:bevel;paint-order:stroke fill markers"
       id="path4"
       d="m 60.495071,97.16391 c 0.323522,-0.687594 0.799584,-1.237702 1.347546,-1.754894 1.059236,-0.938861 2.279129,-1.69068 3.573672,-2.257219 0.844172,-0.250065 1.640988,-0.614333 2.461408,-0.925732 0.587073,-0.211463 1.212093,-0.249782 1.829935,-0.270944 0.732245,0.03826 1.281152,-0.102602 1.958515,-0.359063 0.688443,-0.208685 1.377021,-0.350962 2.038254,-0.642472 0.750695,-0.387204 1.55629,-0.648134 2.380004,-0.824928 0.765056,-0.148585 1.544595,-0.175054 2.321341,-0.192749 0.601252,0.0051 1.151024,0.206962 1.673846,0.491024 0.150109,0.08155 0.58719,0.349324 0.437994,0.266113 -0.962692,-0.536927 -1.91916,-1.084937 -2.878738,-1.627405 0.570881,0.414584 1.002975,0.966687 1.357503,1.569583 0.301331,0.52869 0.410821,1.124066 0.552876,1.707462 0.161761,0.619376 0.333367,1.23558 0.51466,1.84944 0.159512,0.514416 0.424325,0.982067 0.57581,1.499634 0.09609,0.461865 0.319593,0.878041 0.47204,1.320345 0.119595,0.464291 0.139015,0.936601 0.316061,1.385819 0.664721,1.409097 3.048148,2.050646 3.94711,2.538346 0.13776,0.0747 0.269819,0.0256 0.409067,0.002 0.443867,-0.13158 0.869497,-0.29697 1.330063,-0.37695 0.467886,-0.0477 0.949587,-0.11878 1.414375,-0.0273 0.452567,0.0901 0.86851,0.27428 1.322308,0.36414 0.587661,0.0858 1.184809,0.0784 1.777468,0.0862 0.58389,-0.0112 1.172459,0.0513 1.750346,-0.0431 0.576141,-0.0114 0.991296,-0.32864 1.470416,-0.59519 0.262718,-0.14547 0.502873,-0.32363 0.738341,-0.508546 0,0 -3.320925,-2.086777 -3.320925,-2.086777 v 0 c -0.217379,0.176311 -0.447128,0.330531 -0.696828,0.458931 -0.441394,0.24729 -0.859732,0.450934 -1.378871,0.465807 -0.571383,0.02413 -1.143661,0.01254 -1.715415,0.0096 -0.5851,-0.01288 -1.176806,-0.02455 -1.74728,-0.169516 -0.445854,-0.125463 -0.881684,-0.296648 -1.349941,-0.320479 -0.497969,-0.01093 -0.996804,0.02522 -1.48595,0.123166 -0.430887,0.100685 -0.8484,0.296799 -1.29445,0.294942 -1.266632,-0.37097 -2.80044,-1.62955 2.874092,1.743852 0.173424,0.1031 -0.219845,-0.0595 -0.343408,-0.16839 -0.04918,-0.0433 -0.08492,-0.0999 -0.127378,-0.14981 -0.06136,-0.12958 -0.143124,-0.250074 -0.192215,-0.384781 -0.11148,-0.305901 -0.04833,-0.648145 -0.145082,-0.958424 -0.115308,-0.459304 -0.342902,-0.86124 -0.485679,-1.310733 -0.119044,-0.537173 -0.341665,-1.020149 -0.576887,-1.513988 -0.174379,-0.614201 -0.379325,-1.216311 -0.539245,-1.83501 -0.125137,-0.604869 -0.227891,-1.227362 -0.501129,-1.786125 -0.287766,-0.687274 -0.801232,-1.267939 -1.340379,-1.77256 -1.230537,-0.732674 -2.456299,-1.473428 -3.691609,-2.198024 -0.694793,-0.407543 -1.456148,-0.634907 -2.264484,-0.614185 -0.791689,0.0191 -1.580677,0.08025 -2.353533,0.265787 -0.841234,0.205208 -1.655868,0.487847 -2.437455,0.862989 -0.666295,0.254101 -1.364885,0.380219 -2.03459,0.62453 -0.620591,0.212895 -1.255408,0.259731 -1.909191,0.254749 -0.642144,0.04883 -1.286992,0.132141 -1.884207,0.388506 -0.798893,0.338966 -1.604531,0.657784 -2.407311,0.987423 -1.296741,0.64607 -2.517219,1.445453 -3.656468,2.33962 -0.604091,0.526614 -1.095015,1.105133 -1.501243,1.796375 z" />
    <path
       style="opacity:1;fill:#000000;fill-opacity:1;stroke:#000000;stroke-width:0;stroke-linejoin:bevel;paint-order:stroke fill markers"
       id="path5"
       d="m 106.85354,95.479768 c 0.6754,0.139724 1.36915,0.154009 2.05578,0.190786 0.6582,0.03473 1.31724,0.04596 1.97623,0.05076 0.67681,-0.05488 1.32154,0.0608 1.97952,0.202629 0.1345,0.04262 0.57954,0.178294 0.71997,0.242448 0.0908,0.0415 0.34561,0.200276 0.25875,0.15099 -6.38312,-3.622128 -3.50761,-2.526258 -2.86685,-1.449462 0.22171,0.521742 0.10618,1.050623 0.036,1.587254 -0.0826,0.555837 -0.10261,1.119793 -0.12124,1.68094 0.0483,0.606777 -0.19974,1.150382 -0.37596,1.714902 -0.1864,0.796085 -0.42839,1.577805 -0.62567,2.370765 -0.13369,0.7006 -0.25487,1.40331 -0.40665,2.10075 -0.1437,0.95358 -0.3882,1.88964 -0.64036,2.81945 -0.24343,0.78082 -0.38151,1.58857 -0.64195,2.36356 -0.26142,0.69232 -0.38759,1.42045 -0.57941,2.13204 -0.16696,0.60629 -0.20189,1.23834 -0.22967,1.86354 -0.0142,0.58541 -0.0278,1.17115 -0.0211,1.75679 0.0155,0.56956 -0.0166,1.14046 0.0141,1.70936 0.0544,0.43724 0.22268,0.8522 0.41663,1.24478 0.28954,0.58888 0.49485,1.2115 0.86088,1.75913 0.24995,0.34908 0.60952,0.5778 0.97463,0.78983 3.69119,2.14363 2.35219,1.56431 3.96809,2.24385 0.56554,0.29183 1.16926,0.49353 1.75136,0.74487 0.25726,0.0844 0.5016,0.1674 0.74587,0.2816 0.0698,0.0326 0.2793,0.12895 0.21262,0.0904 -3.68158,-2.12757 -4.14503,-2.43628 -2.94628,-1.65414 0.28982,0.18813 0.14173,0.0963 0.44446,0.27525 0,0 3.65652,1.41201 3.65652,1.41201 v 0 c -0.29646,-0.18314 -0.14678,-0.0975 -0.4487,-0.2574 -1.49032,-1.02368 -3.02784,-1.99252 -4.73899,-2.56799 -0.58569,-0.22313 -1.1567,-0.48165 -1.72366,-0.74859 -1.27274,-0.65807 -1.12217,-0.58674 2.71077,1.59796 0.0963,0.0549 -0.17645,-0.13496 -0.2718,-0.19144 -0.25339,-0.1501 -0.54208,-0.24238 -0.74579,-0.47074 -0.42083,-0.49302 -0.65888,-1.06376 -0.86686,-1.6741 -0.16912,-0.37345 -0.38671,-0.7325 -0.47575,-1.13709 -0.12097,-0.5447 -0.0176,-1.1174 -0.0508,-1.67133 0.005,-0.5824 -0.0126,-1.16479 0.006,-1.7471 0.0192,-0.59995 0.046,-1.20394 0.19391,-1.78867 0.17211,-0.70966 0.28074,-1.43506 0.53475,-2.12301 0.26605,-0.78305 0.43913,-1.59202 0.64168,-2.39306 0.24221,-0.93323 0.47125,-1.87109 0.6788,-2.81253 0.17022,-0.69323 0.26724,-1.40176 0.39294,-2.10379 0.18513,-0.78619 0.41767,-1.56039 0.61569,-2.34342 0.19797,-0.59411 0.50351,-1.15118 0.4574,-1.798662 0.009,-0.548616 0.0212,-1.097931 0.099,-1.642086 0.088,-0.592606 0.19338,-1.174724 0.0612,-1.772629 -0.54846,-1.890668 -2.99951,-2.431225 -4.76187,-2.924712 -0.68187,-0.131318 -1.36391,-0.199824 -2.05931,-0.166876 -0.64368,-0.0024 -1.28759,-0.0082 -1.93053,-0.04225 -0.71551,-0.04341 -1.4227,-0.137915 -2.13356,-0.219983 z" />
    <path
       style="opacity:1;fill:#000000;fill-opacity:1;stroke:#000000;stroke-width:0;stroke-linejoin:bevel;paint-order:stroke fill markers"
       id="path6"
       d="m 128.90426,127.8998 c 0.0714,0.0259 0.14009,0.0614 0.21432,0.0776 0.12925,0.0282 0.26335,0.0289 0.39305,0.055 0.85132,0.17106 1.68279,0.4653 2.48707,0.7848 1.57452,0.46865 6.55584,3.39058 0.47388,-0.0635 0.60003,0.41844 1.13954,0.92262 1.49668,1.56509 0.28104,0.6123 0.49021,1.25453 0.73778,1.88108 0.2631,0.65464 0.4996,1.31606 0.64432,2.00726 0.1416,0.76211 -0.0551,1.53604 -0.20928,2.28112 -0.22823,1.0403 -0.69303,1.999 -0.96431,3.02651 -0.2445,0.94058 -0.60253,1.84607 -0.95208,2.75124 -0.28022,0.61954 -0.54369,1.2675 -1.03453,1.7518 -0.0633,0.042 -0.12021,0.0959 -0.19,0.12603 -0.30596,0.13185 -1.82446,0.27934 -1.97874,0.29707 -1.02932,0.11825 -1.76776,0.16026 -2.80251,0.23479 -1.35308,0.0683 -2.71226,0.18398 -4.06765,0.0878 -0.42407,-0.0301 -0.84503,-0.0945 -1.2681,-0.13627 -1.34841,-0.0699 -2.68763,-0.19874 -4.02549,-0.37648 -0.87136,-0.25146 -1.7498,-0.43379 -2.65003,-0.54936 -0.15162,-0.0135 -0.30489,-0.0144 -0.45485,-0.0404 -0.12046,-0.021 -0.67818,-0.18848 -0.80313,-0.22435 -0.32855,-0.0943 -0.64941,-0.16492 -0.96455,-0.29758 -0.0922,-0.0293 -0.18056,-0.0755 -0.27647,-0.0878 -0.14207,-0.0182 -0.28644,-0.002 -0.42966,-0.002 -0.80416,-0.003 -1.59406,0.0441 -2.39532,0.11037 -0.67442,0.0797 -1.62291,0.0886 -2.11967,0.65344 -0.0716,0.0813 -0.11688,0.18244 -0.17532,0.27366 -0.25777,0.44867 -0.14941,0.91742 -0.0816,1.39666 0.0722,0.47281 0.15534,0.95483 0.34396,1.39625 0.21735,0.32308 0.38174,0.64188 0.45885,1.02481 0.0909,0.55875 0.0533,1.12599 0.09,1.68836 0.0682,0.49578 0.28728,0.92404 0.66214,1.25255 1.12053,0.95987 2.70326,1.63354 3.84576,2.26182 0.055,0.0302 0.12521,0.0142 0.18563,0.0311 0.18449,0.0515 0.18292,0.074 0.33038,0.19075 -6.51283,-3.55513 -3.69133,-2.64921 -2.98315,-1.58284 0,0 3.58172,1.63727 3.58172,1.63727 v 0 c -0.47687,-1.55633 -1.5804,-1.40048 -3.66552,-2.52861 -0.12727,-0.0463 -0.25844,-0.0818 -0.38447,-0.1314 -0.0529,-0.0208 -0.20242,-0.10319 -0.15336,-0.0745 5.58684,3.26497 4.06839,2.35316 2.88865,1.67759 -0.67269,-0.58457 0.35211,0.28951 -0.3459,-0.2515 -0.24031,-0.18626 -0.33001,-0.4781 -0.45287,-0.74278 -0.0909,-0.55991 -0.0195,-1.12971 -0.0667,-1.69394 -0.0439,-0.41603 -0.10566,-0.8325 -0.40169,-1.15207 -0.26584,-0.37074 -0.33389,-0.82497 -0.40269,-1.26838 -0.0576,-0.37587 -0.2016,-0.79029 -0.0632,-1.15441 0.40707,-0.62799 1.34524,-0.61232 2.00328,-0.69186 1.02533,-0.0732 2.10626,-0.17755 3.09338,0.172 0.73208,0.20285 1.46802,0.41288 2.22892,0.47041 0.89319,0.13121 1.7534,0.38901 2.64237,0.53493 1.32942,0.13926 2.66305,0.21236 3.99315,0.34318 1.73172,0.17311 3.45729,0.0224 5.18639,-0.1387 0.91797,-0.0677 1.94247,-0.14614 2.86057,-0.20252 0.42208,-0.0259 0.8452,-0.0353 1.26677,-0.0685 0.51492,-0.0404 0.91417,-0.0635 1.2859,-0.42846 0.48775,-0.553 0.7774,-1.22818 1.05642,-1.905 0.38616,-0.90882 0.6818,-1.85399 0.94831,-2.80424 0.29582,-1.02368 0.7483,-1.99727 0.95724,-3.04686 0.20469,-0.77385 0.49606,-1.57559 0.36665,-2.38553 -0.13395,-0.71624 -0.36393,-1.40184 -0.63147,-2.079 -0.24771,-0.62865 -0.46961,-1.26515 -0.70321,-1.89678 -0.31057,-0.73773 -0.8589,-1.29649 -1.4819,-1.78995 -2.29404,-1.34472 -4.51084,-2.76731 -7.02415,-3.65973 -1.07113,-0.39016 -2.16442,-0.70375 -3.27205,-0.97307 z" />
    <path
       style="opacity:1;fill:#000000;fill-opacity:1;stroke:#000000;stroke-width:0;stroke-linejoin:bevel;paint-order:stroke fill markers"
       id="path7"
       d="m 117.45333,158.48313 c 0.67442,2.94373 1.14219,5.93169 1.64625,8.90842 0.25268,1.88762 0.74021,3.77392 0.64912,5.69044 -0.0579,0.89172 -0.57414,1.50279 -1.10232,2.1714 -0.72,0.79459 -1.50708,1.5243 -2.30916,2.23459 -1.08769,0.93966 -2.13075,1.29388 -3.53633,1.49011 -1.75352,0.1556 -3.22381,-0.26012 -4.80588,-0.96776 -1.33334,-0.59301 -2.70613,-1.12884 -3.96848,-1.86574 -1.95396,-1.11174 1.98997,1.13263 2.25415,1.27606 0.16737,0.0909 -0.31477,-0.21445 -0.47188,-0.32208 -0.49436,-0.33868 -0.97774,-0.68482 -1.45448,-1.04797 -0.90768,-0.78299 -1.66416,-1.71957 -2.27669,-2.7463 -0.46176,-0.86819 -0.86142,-1.76774 -1.10687,-2.72111 -0.096,-0.5479 -0.31925,-1.05803 -0.47808,-1.58705 -0.14881,-0.66264 -0.38452,-1.29743 -0.633526,-1.92749 -0.306136,-0.84871 -0.694565,-1.65612 -1.217242,-2.39151 -1.274008,-1.54333 -3.052387,-2.16842 -4.833189,-3.16681 -0.575828,-0.11777 -1.165328,-0.14435 -1.74998,-0.20194 -0.810297,-0.0732 -1.627016,-0.16766 -2.44031,-0.10437 -0.386692,0.0502 -0.206121,0.003 -0.544135,0.13165 0,0 3.249922,2.2125 3.249922,2.2125 v 0 c 0.274744,-0.0639 0.123413,-0.0363 0.455544,-0.0736 0.799521,-0.0231 1.59756,0.062 2.391315,0.15059 0.574439,0.0768 1.173109,0.082 1.712148,0.31591 -1.039897,-0.60414 -2.083745,-1.20154 -3.119692,-1.81244 -0.08149,-0.048 0.173506,0.0764 0.255556,0.12346 0.400997,0.23018 0.719685,0.58234 1.057698,0.89069 0.557962,0.69114 0.994236,1.44938 1.275334,2.29673 0.225272,0.61522 0.485378,1.22031 0.587986,1.87219 0.154533,0.53995 0.392732,1.04513 0.533001,1.59075 0.219313,1.00307 0.678206,1.917 1.110395,2.8428 0.58306,1.08227 1.355426,2.03563 2.237955,2.89065 1.89387,1.54312 4.04351,2.72244 6.17576,3.90496 1.2782,0.66634 2.61105,1.22375 3.93565,1.79016 1.58423,0.64145 3.2232,1.03724 4.94407,0.81002 1.42052,-0.24363 2.62685,-0.65022 3.71494,-1.63419 0.80853,-0.73382 1.63494,-1.45529 2.35793,-2.27563 0.64364,-0.77018 1.14181,-1.34908 1.21596,-2.39631 0.0191,-2.01585 -0.63716,-3.95617 -0.96153,-5.92961 -0.53584,-2.88685 -1.01793,-5.78647 -1.23519,-8.71743 z" />
    <path
       style="opacity:1;fill:#000000;fill-opacity:1;stroke:#000000;stroke-width:0;stroke-linejoin:bevel;paint-order:stroke fill markers"
       id="path8"
       d="m 88.262128,162.08207 c -0.537919,0.42869 -1.190895,0.67449 -1.845543,0.86113 -0.755861,0.18121 -1.534874,0.2062 -2.308309,0.2206 -0.743874,0.0314 -1.477344,0.006 -2.214084,-0.0897 -0.659498,-0.0966 -1.157676,-0.22287 -1.620266,0.34105 -0.245779,0.47091 -0.246197,0.99167 -0.259966,1.50823 0.05692,0.46775 -0.06136,0.85818 -0.225894,1.28472 -0.118438,0.21491 -0.05785,0.1041 -0.181617,0.33247 0,0 3.417501,1.95942 3.417501,1.95942 v 0 c 0.13013,-0.24371 0.0629,-0.1174 0.20162,-0.37897 0.176607,-0.46474 0.355928,-0.90067 0.282244,-1.41207 -0.0011,-0.41847 -0.0141,-0.85891 0.141537,-1.25409 0.342373,-0.33301 0.95323,-0.0605 1.364916,-0.0573 0.745951,0.0792 1.494991,0.0561 2.244072,0.0406 0.795382,-0.0327 1.594927,-0.0826 2.363126,-0.30965 0.697978,-0.23038 1.371404,-0.51855 1.982782,-0.93254 z" />
    <path
       style="opacity:1;fill:#000000;fill-opacity:1;stroke:#000000;stroke-width:0;stroke-linejoin:bevel;paint-order:stroke fill markers"
       id="path9"
       d="m 78.491431,174.14463 c -0.818298,0.71304 -1.733606,1.31886 -2.611546,1.95848 -1.110115,0.7791 -2.236399,1.55242 -3.430937,2.19846 -0.798753,0.40496 -1.688248,0.54509 -2.56005,0.70599 -0.725077,0.18292 -1.496488,0.0783 -2.208842,0.29009 -0.82392,0.2582 -1.688457,0.32927 -2.545427,0.38343 -0.642363,0.1058 -1.160068,-0.18179 -1.716457,-0.44109 -1.373257,-0.8093 1.101,0.65016 2.911837,1.66275 0.07565,0.0423 -0.139721,-0.10271 -0.207105,-0.15723 -0.210902,-0.17064 -0.416171,-0.35001 -0.624991,-0.52337 -0.417923,-0.41506 -0.892339,-0.76246 -1.371584,-1.10237 -0.395185,-0.33875 -0.841767,-0.69002 -0.972196,-1.21403 -0.02891,-0.62728 0.326684,-1.11661 0.647063,-1.61688 0.506624,-0.62801 1.032602,-1.24647 1.596138,-1.82478 0.693214,-0.78261 1.261705,-1.67183 1.855835,-2.53124 0.542724,-0.81192 1.008457,-1.66838 1.407189,-2.55881 0.305888,-0.68778 0.450969,-1.42456 0.553051,-2.16526 0.08741,-0.75548 0.17013,-1.50773 0.329795,-2.252 0.210011,-0.57542 0.591296,-1.06281 0.817073,-1.63027 0.180383,-0.64058 -0.181007,-1.03024 -0.645549,-1.40491 -0.414472,-0.28344 -0.71605,-0.46694 -0.884325,-0.95562 -0.0859,-0.64495 -0.189428,-1.26288 -0.451948,-1.86312 -0.965364,-1.59014 -2.837881,-2.63807 -4.663516,-2.94424 -0.576945,-0.10174 -1.115687,0.0459 -1.643116,0.27146 -0.433646,0.2132 -0.215283,0.11104 -0.655047,0.30657 0,0 3.240148,2.15327 3.240148,2.15327 v 0 c 0.437991,-0.1941 0.219901,-0.10129 0.654103,-0.27883 0.503947,-0.15888 1.003805,-0.22431 1.520076,-0.0694 1.21008,0.41615 3.294632,1.84672 -2.653567,-1.63593 -0.08006,-0.0469 0.162335,0.0911 0.23604,0.14746 0.211588,0.16175 0.246058,0.23615 0.408697,0.44763 0.337426,0.54627 0.452035,1.13449 0.46609,1.77236 0.120584,0.63481 0.217297,0.85761 0.781312,1.20267 0.177548,0.11878 0.817753,0.52715 0.872016,0.72895 0.01942,0.0723 -0.0026,0.14963 -0.0038,0.22445 -0.195212,0.60235 -0.638821,1.08738 -0.840648,1.68981 -0.124039,0.75388 -0.225758,1.50816 -0.32704,2.26514 -0.130797,0.70524 -0.168892,1.43296 -0.470993,2.09745 -0.378365,0.87172 -0.84981,1.70399 -1.350396,2.51066 -0.570305,0.85148 -1.161995,1.70119 -1.858233,2.45487 -0.571637,0.60523 -1.124537,1.23301 -1.655021,1.87412 -0.374322,0.56377 -0.739349,1.13994 -0.787705,1.83711 -0.0013,0.11057 -0.02074,0.22244 -0.0038,0.33171 0.07859,0.50689 0.549199,0.81126 0.84622,1.18035 0.452075,0.36867 0.993227,0.64067 1.379524,1.08295 1.384951,1.2073 2.86076,2.21225 4.619175,2.92323 0.580261,0.25418 1.158698,0.35764 1.793309,0.25389 0.875826,-0.0821 1.752283,-0.18282 2.604241,-0.4111 0.719323,-0.10809 1.450776,-0.13864 2.161664,-0.30693 0.9036,-0.18037 1.83664,-0.3224 2.63679,-0.81054 1.150686,-0.71457 2.228395,-1.54021 3.362428,-2.2807 0.942314,-0.63251 1.897893,-1.24841 2.821705,-1.90683 z" />
    <path
       style="opacity:1;fill:#000000;fill-opacity:1;stroke:#000000;stroke-width:0;stroke-linejoin:bevel;paint-order:stroke fill markers"
       id="path10"
       d="m 50.901377,163.39452 c -1.234109,-0.0615 -2.464633,-0.12952 -3.695448,-0.24076 -1.143035,-0.1563 -2.282836,-0.32886 -3.419923,-0.52188 -0.798017,-0.10327 -1.568166,-0.28038 -2.269061,-0.68135 1.013775,0.57893 2.020107,1.17109 3.041319,1.73679 0.09585,0.0531 -0.180377,-0.12527 -0.262699,-0.19757 -0.32911,-0.28906 -0.462423,-0.62974 -0.570048,-1.04245 -0.162385,-0.74264 0.09865,-1.45693 0.358016,-2.14445 0.493075,-1.0488 1.136962,-2.02633 1.762988,-3.00048 0.508687,-0.83969 1.057642,-1.63939 1.384548,-2.56965 0.111842,-0.51553 0.190953,-1.00156 0.473469,-1.45305 0.298765,-0.52733 0.663417,-1.00863 0.905026,-1.56577 0,0 -3.403515,-1.90953 -3.403515,-1.90953 v 0 c -0.221522,0.53832 -0.550095,1.0163 -0.867048,1.50264 -0.384294,0.54495 -0.437925,0.90299 -0.528806,1.54981 -0.251222,0.91941 -0.765853,1.71652 -1.231006,2.54071 -0.383458,0.61096 -0.767122,1.21917 -1.174911,1.8143 -0.118341,0.17271 -0.480693,0.67977 -0.591672,0.88836 -0.05289,0.0994 -0.08329,0.2092 -0.124937,0.31381 -0.285689,0.74434 -0.567118,1.52675 -0.463595,2.33577 0.03907,0.26488 0.05412,0.45647 0.141291,0.70966 0.538498,1.56414 3.648445,2.44133 4.19178,2.92303 0.734968,0.31819 1.519735,0.45656 2.310241,0.56714 1.119862,0.18442 2.24772,0.31575 3.374385,0.45113 1.283414,0.11163 2.569985,0.17996 3.851516,0.31285 z" />
  </g>
</svg>
